<svg xmlns="http://www.w3.org/2000/svg" x="0px" y="0px" viewBox="13.3 12.4 38 39" enable-background="new 0 0 64 64">
<g>
	
		<circle fill="#023A6CFF" stroke="#151E28FF" stroke-width="2.5" stroke-linecap="round" stroke-linejoin="round" stroke-miterlimit="10" cx="25" cy="18" r="4.375"/>
	
		<path fill="#023A6CFF" stroke="#151E28FF" stroke-width="2.5" stroke-linecap="round" stroke-linejoin="round" stroke-miterlimit="10" d="   M47.073,40.412l-3.646-1.823c-0.568-0.284-0.927-0.865-0.927-1.5v-8.427c0-0.635,0.359-1.216,0.927-1.5l3.646-1.823   c1.115-0.557,2.427,0.253,2.427,1.5v12.074C49.5,40.158,48.188,40.969,47.073,40.412z"/>
</g>
<g>
	<g>
	</g>
	
		<path fill="#023A6CFF" stroke="#151E28FF" stroke-width="2.5" stroke-linecap="round" stroke-linejoin="round" stroke-miterlimit="10" d="   M36.101,50.375H20.899c-3.534,0-6.399-2.865-6.399-6.399V28.774c0-3.534,2.865-6.399,6.399-6.399h15.202   c3.534,0,6.399,2.865,6.399,6.399v15.202C42.5,47.51,39.635,50.375,36.101,50.375z"/>
</g>
<g>
	
		<line fill="none" stroke="#151E28FF" stroke-width="2.5" stroke-linecap="round" stroke-linejoin="round" stroke-miterlimit="10" x1="23.25" y1="31.125" x2="33.75" y2="31.125"/>
	
		<line fill="none" stroke="#151E28FF" stroke-width="2.5" stroke-linecap="round" stroke-linejoin="round" stroke-miterlimit="10" x1="23.25" y1="41.426" x2="33.75" y2="41.426"/>
</g>
</svg>